<?xml version="1.0" encoding="utf-8"?>
<!-- Generator: Adobe Illustrator 21.0.2, SVG Export Plug-In . SVG Version: 6.00 Build 0)  -->
<svg version="1.1" id="Layer_1" xmlns="http://www.w3.org/2000/svg" xmlns:xlink="http://www.w3.org/1999/xlink" x="0px" y="0px"
	 viewBox="0 0 612 792" style="enable-background:new 0 0 612 792;" xml:space="preserve">
<style type="text/css">
	.st0{fill:#FFFFFF;enable-background:new    ;}
</style>
<path class="st0" d="M182,504c0-75.3,0-150.7,0-226c2.2-5.8,6.2-9.8,12-12c75.3,0,150.7,0,226,0c5.8,2.2,10,6,12,12
	c0,75.3,0,150.7,0,226c-2,6-6.1,9.9-12,12c-21.7,0-43.3,0-65,0c0-31.9,0-63.9,0-96.2c2.5-0.1,4.3-0.3,6.1-0.3c7.3,0,14.7-0.2,22,0
	c3.3,0.1,4.7-1,5.1-4.4c1.1-9.9,2.4-19.8,3.9-29.7c0.6-3.8-1-4.6-4.3-4.5c-9,0.1-18,0.1-27,0c-1.8,0-3.5-0.2-5.4-0.3
	c0-9.6-0.3-18.6,0.1-27.5c0.4-8,4.4-12.2,12.5-12.9c6.9-0.7,14-0.7,20.9-0.6c3.7,0.1,5.1-1.1,5-4.8c-0.2-6.8,0-13.7,0-20.5
	c0-3.1,0-6.1,0-10.4c-13.2,0-25.4-0.8-37.5,0.2c-20.7,1.6-35.5,15.1-39.6,35.6c-1.3,6.3-1.4,12.9-1.6,19.3
	c-0.3,7.1-0.1,14.2-0.1,21.7c-2.4,0.1-4.2,0.2-6,0.3c-7.5,0-15-0.1-22.5,0.1c-1.3,0-3.7,1.6-3.7,2.5c-0.3,11.8-0.2,23.5-0.2,36
	c11,0,21.4,0,32.4,0c0,32.6,0,64.5,0,96.5c-40.3,0-80.7,0-121,0C188,514,184.2,509.8,182,504z"/>
</svg>
