<?xml version="1.0" encoding="utf-8"?>
<!-- Generator: Adobe Illustrator 21.0.2, SVG Export Plug-In . SVG Version: 6.00 Build 0)  -->
<svg version="1.1" id="Layer_1" xmlns="http://www.w3.org/2000/svg" xmlns:xlink="http://www.w3.org/1999/xlink" x="0px" y="0px"
	 viewBox="0 0 612 792" style="enable-background:new 0 0 612 792;" xml:space="preserve">
<style type="text/css">
	.st0{fill:#FFFFFF;}
</style>
<path class="st0" d="M208.9,349c0-6,4.7-10.8,10.7-10.8c5.9,0,10.8,4.8,10.8,10.7c0,5.9-4.8,10.8-10.7,10.8
	C213.7,359.8,208.9,355,208.9,349z"/>
<path class="st0" d="M171.2,443.1c-25.9,0.1-46.8-20.4-46.9-45.9c-0.1-25.4,20.8-46.2,46.5-46.3c25.9-0.1,46.8,20.4,46.9,45.9
	C217.9,422.2,197,443,171.2,443.1z M201.3,397c0-16.7-13.5-30-30.3-30c-16.8,0-30.3,13.4-30.2,30.1c0,16.7,13.5,30,30.3,30
	C187.8,427,201.3,413.6,201.3,397z"/>
<path class="st0" d="M80,362c0.6-4.2,1.1-8.5,1.8-12.7c4.3-23.9,21.2-40.1,45.4-41c29.1-1,58.3-1.1,87.4,0
	c26.3,0.9,45.4,20.4,46.2,46.7c0.9,27.9,0.9,56,0,83.9c-0.8,26.3-19.9,45.8-46.2,46.7c-29.1,1-58.3,1.1-87.4,0
	c-26.3-1-44.5-20.5-46.3-46.9c-0.2-2.3-0.6-4.5-1-6.8C80,408.7,80,385.3,80,362z M171,470.1c0,0.2,0,0.5,0,0.7
	c8.8,0,17.7,0.1,26.5,0c4.5-0.1,9-0.4,13.5-0.7c20.5-1.1,33.4-13.3,33.9-33.9c0.6-26.1,0.7-52.3,0-78.4
	c-0.5-20.6-13.3-33.3-33.9-33.7c-26.6-0.6-53.3-0.6-79.9,0c-20.6,0.4-33.4,13.1-33.9,33.8c-0.7,26.1-0.7,52.3,0,78.4
	c0.5,20.6,13.3,33,33.9,33.8C144.4,470.5,157.7,470.1,171,470.1z"/>
</svg>
