<?xml version="1.0" encoding="utf-8"?>
<!-- Generator: Adobe Illustrator 21.0.2, SVG Export Plug-In . SVG Version: 6.00 Build 0)  -->
<svg version="1.1" id="Layer_1" xmlns="http://www.w3.org/2000/svg" xmlns:xlink="http://www.w3.org/1999/xlink" x="0px" y="0px"
	 viewBox="0 0 612 792" style="enable-background:new 0 0 612 792;" xml:space="preserve">
<style type="text/css">
	.st0{fill:#FFFFFF;}
</style>
<g>
	<path class="st0" d="M399.7,346H290.3c-5.2,0-9.3,4.2-9.3,9.3v109.3c0,5.2,4.2,9.3,9.3,9.3h109.3c5.2,0,9.3-4.2,9.3-9.3V355.3
		C409,350.2,404.8,346,399.7,346z M319.1,454.8h-19v-60.6h19V454.8z M309.6,385.8c-6.3,0-11.3-5.1-11.3-11.3s5.1-11.3,11.3-11.3
		s11.3,5.1,11.3,11.3S315.9,385.8,309.6,385.8z M389.5,454.8h-18.2l-0.2-37.3c-0.3-7.5-14.8-15.8-21.1,0.8v36.6h-19v-60.6h19v6.8
		c13.2-14.3,37.4-13,39.6,10.9V454.8z"/>
</g>
</svg>
